<?xml version="1.0" standalone="no"?>
<!DOCTYPE svg PUBLIC "-//W3C//DTD SVG 20010904//EN"
 "http://www.w3.org/TR/2001/REC-SVG-20010904/DTD/svg10.dtd">
<svg version="1.0" xmlns="http://www.w3.org/2000/svg"
 width="100%" height="100%" viewBox="0 0 180.000000 180.000000"
 preserveAspectRatio="xMidYMid meet">

<g transform="translate(0.000000,180.000000) scale(0.100000,-0.100000)"
fill="#000000" stroke="none">
<path d="M0 1685 c0 -63 2 -115 5 -115 2 0 26 9 53 19 171 68 387 65 557 -6
208 -87 380 -284 436 -500 28 -106 28 -260 0 -366 -56 -216 -228 -413 -436
-500 -169 -71 -386 -74 -553 -8 -29 12 -55 21 -57 21 -3 0 -5 -52 -5 -115 l0
-115 399 0 399 0 90 59 c349 229 519 636 436 1043 -53 263 -204 483 -435 637
l-90 61 -400 0 -399 0 0 -115z"/>
<path d="M250 1349 c-65 -11 -148 -48 -207 -92 l-42 -32 0 -325 0 -325 42 -32
c193 -145 461 -125 620 47 168 181 168 439 0 620 -66 72 -166 125 -263 140
-73 11 -74 11 -150 -1z m180 -293 c79 -52 109 -163 67 -244 -24 -44 -90 -90
-142 -98 -144 -21 -261 137 -196 264 54 106 176 141 271 78z"/>
</g>
</svg>
