<?xml version="1.0" encoding="utf-8"?>
<!-- Generator: Adobe Illustrator 24.0.1, SVG Export Plug-In . SVG Version: 6.00 Build 0)  -->
<svg version="1.1"
	 id="svg8" xmlns:cc="http://creativecommons.org/ns#" xmlns:dc="http://purl.org/dc/elements/1.1/" xmlns:inkscape="http://www.inkscape.org/namespaces/inkscape" xmlns:rdf="http://www.w3.org/1999/02/22-rdf-syntax-ns#" xmlns:sodipodi="http://sodipodi.sourceforge.net/DTD/sodipodi-0.dtd" xmlns:svg="http://www.w3.org/2000/svg"
	 xmlns="http://www.w3.org/2000/svg" xmlns:xlink="http://www.w3.org/1999/xlink" x="0px" y="0px" viewBox="0 0 140 35"
	 style="enable-background:new 0 0 140 35;" xml:space="preserve">
<style type="text/css">
	.st0{fill:#1A96D5;}
</style>
<sodipodi:namedview  bordercolor="#666666" borderopacity="1.0" id="base" inkscape:current-layer="layer1" inkscape:cx="116.12624" inkscape:cy="27.397559" inkscape:document-rotation="0" inkscape:document-units="px" inkscape:lockguides="false" inkscape:pagecheckerboard="false" inkscape:pageopacity="0" inkscape:pageshadow="2" inkscape:window-height="714" inkscape:window-maximized="0" inkscape:window-width="1280" inkscape:window-x="18" inkscape:window-y="36" inkscape:zoom="22.4" pagecolor="#bdbdbd" showgrid="false" showguides="true" units="px">
	</sodipodi:namedview>
<g id="layer1" inkscape:groupmode="layer" inkscape:label="繝ｬ繧､繝､繝ｼ 1">
	<rect id="rect106" x="0" y="0" class="st0" width="4" height="35"/>
	<rect id="rect106-4" x="15" y="0" class="st0" width="4" height="35"/>
	<polygon id="rect106-7" class="st0" points="0.4,1.7 4,0 18.6,33.3 15,35 	"/>
	<path id="rect106-4-4" class="st0" d="M27,0c-2.2,0-4,1.8-4,4v27c0,2.2,1.8,4,4,4h11c2.2,0,4-1.8,4-4V4c0-2.2-1.8-4-4-4H27z
		 M28.5,4h8C37.3,4,38,4.7,38,5.5v24c0,0.8-0.7,1.5-1.5,1.5h-8c-0.8,0-1.5-0.7-1.5-1.5v-24C27,4.7,27.7,4,28.5,4z"/>
	<rect id="rect106-4-0" x="46" y="0" class="st0" width="4" height="35"/>
	<rect id="rect106-4-0-2" x="66" y="0" class="st0" width="4" height="35"/>
	<path id="rect106-4-4-1" class="st0" d="M78,0c-2.2,0-4,1.8-4,4v27c0,2.2,1.8,4,4,4h11c2.2,0,4-1.8,4-4V4c0-2.2-1.8-4-4-4H78z
		 M79.5,4h8C88.3,4,89,4.7,89,5.5v24c0,0.8-0.7,1.5-1.5,1.5h-8c-0.8,0-1.5-0.7-1.5-1.5v-24C78,4.7,78.7,4,79.5,4z"/>
	<path id="rect106-4-4-1-8" class="st0" d="M100,0c-2.2,0-4,1.8-4,4v27c0,2.2,1.8,4,4,4h11c2.2,0,4-1.8,4-4v-3h-4v1.5
		c0,0.8-0.7,1.5-1.5,1.5h-8c-0.8,0-1.5-0.7-1.5-1.5v-24c0-0.8,0.7-1.5,1.5-1.5h8c0.8,0,1.5,0.7,1.5,1.5V7h4V4c0-2.2-1.8-4-4-4H100z"
		/>
	<path id="rect106-4-4-1-8-2" class="st0" d="M122,0c-2.2,0-4,1.8-4,4v3h4V5.5c0-0.8,0.7-1.5,1.5-1.5h8c0.8,0,1.5,0.7,1.5,1.5v6
		c0,0.8-0.7,1.5-1.5,1.5h-9.7c-2.1,0-3.8,1.7-3.8,3.8v14.4c0,2.1,1.7,3.8,3.8,3.8h11.4c2.1,0,3.8-1.7,3.8-3.8v-8v-6.5V9V4
		c0-2.2-1.8-4-4-4H122z M123.5,17h8c0.8,0,1.5,0.7,1.5,1.5v4.7v6.3c0,0.8-0.7,1.5-1.5,1.5h-8c-0.8,0-1.5-0.7-1.5-1.5v-11
		C122,17.7,122.7,17,123.5,17z"/>
	<path id="rect106-4-4-1-8-2-7" inkscape:connector-curvature="0" class="st0" d="M135.5,29.4V33c0,1.1,0.9,2,2,2h2.4v-4h-1
		c-1,0-1.8-0.7-1.9-1.6L135.5,29.4z"/>
	<path id="path134" inkscape:transform-center-y="1.543403" class="st0" d="M46,0l6,17.5L56.3,30h3.4L64,17.5L70,0h-4l-4,11.5L58,23
		l-4-11.5L50,0H46z"/>
</g>
</svg>
