<?xml version="1.0" encoding="utf-8"?>
<!-- Generator: Adobe Illustrator 24.1.0, SVG Export Plug-In . SVG Version: 6.00 Build 0)  -->
<svg version="1.1" id="レイヤー_1" xmlns="http://www.w3.org/2000/svg" xmlns:xlink="http://www.w3.org/1999/xlink" x="0px"
	 y="0px" viewBox="0 0 160 40" style="enable-background:new 0 0 160 40;" xml:space="preserve">
<style type="text/css">
	.st0{fill:#059DD4;}
</style>
<g>
	<path d="M63.1,10.2c-0.1,0-0.2,0-0.3,0.2l-0.1,0.1c-0.2,0.2-0.3,0.4-0.5,0.6V9.7c0-0.6-0.3-0.8-0.9-0.8h-0.5c0-0.1,0.1-0.2,0.1-0.3
		c0,0,0-0.1,0-0.1c0-0.2-0.2-0.4-0.4-0.4c-0.2,0-0.3,0.1-0.4,0.3c0,0.2-0.1,0.3-0.2,0.5h-0.4c-0.7,0-0.9,0.2-0.9,0.8V12
		c-0.3,0-0.5,0-0.8,0.1c-0.2,0-0.3,0.2-0.3,0.4c0,0.1,0,0.2,0.1,0.3c0.1,0.1,0.2,0.1,0.3,0.1c1-0.1,1.8-0.2,2.6-0.3
		c-0.8,0.5-1.7,0.9-2.8,1.2c-0.2,0-0.3,0.2-0.3,0.4c0,0.2,0.1,0.4,0.4,0.4c0,0,0.1,0,0.1,0c1.4-0.4,2.6-1,3.6-1.7l0,0.4v0.6
		c0,0.1-0.1,0.2-0.2,0.2c-0.1,0-0.2,0-0.3,0c-0.2,0-0.3,0-0.3,0.1c-0.1,0.1-0.1,0.2-0.1,0.3c0,0.2,0.1,0.3,0.3,0.4
		c0.2,0,0.3,0,0.4,0c0.7,0,1-0.3,1-0.9v-1.7c0.4-0.4,0.8-0.8,1.2-1.2c0.1-0.1,0.1-0.2,0.1-0.3C63.5,10.4,63.4,10.2,63.1,10.2z
		 M61.5,11.5v0.1c-0.2,0-0.4,0.1-0.6,0.1c-0.4,0.1-1,0.1-1.5,0.2v-0.4H61.5z M61.5,10.5v0.3h-2.1v-0.3H61.5z M59.4,9.9V9.7
		c0-0.2,0-0.2,0.2-0.2h1.6c0.2,0,0.2,0,0.2,0.2v0.2H59.4z"/>
	<path d="M71.3,13.6c-0.5,0-1.1,0.1-1.8,0.1c-1.4,0-2.1-0.1-2.5-0.6v-1.3c0-0.6-0.2-0.8-0.8-0.8h-0.6c-0.2,0-0.3,0.2-0.3,0.4
		c0,0.2,0.1,0.4,0.3,0.4h0.4c0.2,0,0.2,0,0.2,0.1v1.2c-0.2,0.2-0.5,0.5-0.8,0.7c-0.1,0.1-0.2,0.2-0.2,0.4c0,0.2,0.2,0.4,0.4,0.4
		c0.1,0,0.2,0,0.3-0.1c0.3-0.2,0.6-0.5,0.8-0.7c0.5,0.5,1.3,0.7,2.8,0.7c0.8,0,1.3,0,1.8-0.1c0.3,0,0.4-0.2,0.4-0.4
		c0-0.1,0-0.2-0.1-0.3C71.6,13.6,71.5,13.6,71.3,13.6z"/>
	<path d="M67.8,13.3c0.1,0,0.3,0,0.4-0.2c0.4-0.6,0.6-1.3,0.6-2.2h0.8v2.2c0,0.2,0.2,0.3,0.4,0.3s0.4-0.1,0.4-0.3v-2.2h0.9
		c0.2,0,0.3-0.2,0.3-0.4s-0.1-0.4-0.3-0.4h-2.5V9.4c0.8-0.1,1.5-0.2,2.1-0.4c0.2-0.1,0.3-0.2,0.3-0.4c0-0.2-0.1-0.4-0.4-0.4
		c-0.1,0-0.1,0-0.2,0c-0.6,0.2-1.3,0.3-1.9,0.4c-0.1-0.1-0.2-0.1-0.3-0.1C68.2,8.6,68,8.7,68,9v1.4c0,1.1-0.1,1.7-0.5,2.3
		c0,0.1-0.1,0.2-0.1,0.2C67.4,13.2,67.6,13.3,67.8,13.3z"/>
	<path d="M66.4,9.8c0.1,0.1,0.2,0.2,0.3,0.2c0.2,0,0.4-0.2,0.4-0.4c0-0.1,0-0.2-0.1-0.3h0c-0.2-0.2-0.4-0.4-0.7-0.6
		c-0.1-0.1-0.2-0.1-0.3-0.1c-0.2,0-0.4,0.2-0.4,0.4c0,0.1,0.1,0.2,0.2,0.3C66,9.4,66.2,9.5,66.4,9.8z"/>
	<path d="M78.6,10.8c-0.1-0.1-0.2-0.1-0.2-0.1c-0.2,0-0.3,0.1-0.3,0.3c0,0.1,0,0.1,0.1,0.2c0.2,0.2,0.4,0.4,0.5,0.6
		c0.1,0.1,0.2,0.1,0.3,0.1c0.2,0,0.3-0.1,0.3-0.3c0-0.1,0-0.1-0.1-0.2C79,11.2,78.8,11,78.6,10.8z"/>
	<path d="M78.2,13.4c-1-0.1-1.5-0.6-1.5-1.3c0-0.5,0.1-1.3,1.3-1.9c0.2-0.1,0.5-0.2,0.7-0.3c0.3-0.1,0.3-0.3,0.3-0.4
		c0-0.1,0-0.2-0.1-0.3C78.9,9,78.8,9,78.7,9c-1.5,0.1-3.3,0.3-4.6,0.5c-0.3,0-0.4,0.2-0.4,0.4c0,0.1,0.1,0.3,0.1,0.3
		c0.1,0.1,0.2,0.1,0.4,0.1c0.3,0,0.5-0.1,0.8-0.1c0.7-0.1,1.4-0.2,2-0.3c-0.7,0.6-1.1,1.3-1.1,2.1c0,1.2,0.9,2.1,2.2,2.2
		c0,0,0,0,0,0c0.1,0,0.2,0,0.3-0.1c0.1-0.1,0.1-0.2,0.1-0.3C78.6,13.6,78.5,13.4,78.2,13.4z"/>
	<path d="M79.3,10.3c-0.1-0.1-0.2-0.1-0.2-0.1c-0.2,0-0.3,0.1-0.3,0.3c0,0.1,0,0.1,0.1,0.2c0.1,0.1,0.3,0.4,0.5,0.6
		c0.1,0.1,0.2,0.1,0.3,0.1c0.2,0,0.3-0.1,0.3-0.3c0-0.1,0-0.2-0.1-0.2C79.7,10.6,79.5,10.4,79.3,10.3z"/>
	<path d="M84.4,9.1c0.2,0.1,0.4,0.3,0.7,0.5c0.1,0.1,0.2,0.1,0.3,0.1c0.2,0,0.4-0.2,0.4-0.4c0-0.1-0.1-0.2-0.2-0.3
		c-0.3-0.2-0.5-0.4-0.7-0.5c-0.1,0-0.2-0.1-0.3-0.1c-0.2,0-0.4,0.2-0.4,0.4C84.2,8.9,84.3,9,84.4,9.1z"/>
	<path d="M86,9.8c-0.7,0-1.4,0.1-2.3,0.4l-0.4-1.1C83.3,9,83.2,8.9,83,8.9c-0.2,0-0.5,0.1-0.5,0.4c0,0,0,0.1,0,0.1l0.4,1.1
		c-0.3,0.1-0.7,0.3-1,0.4c-0.2,0.1-0.2,0.2-0.2,0.4c0,0.2,0.2,0.4,0.4,0.4c0.1,0,0.1,0,0.2,0c0.3-0.2,0.6-0.3,1-0.4l1,3
		c0.1,0.2,0.2,0.3,0.4,0.3c0.2,0,0.4-0.2,0.4-0.4c0,0,0-0.1,0-0.1l-1-3c0.8-0.3,1.4-0.4,2-0.4c0.6,0,0.9,0.2,0.9,0.5
		c0,0.3-0.2,0.6-0.7,0.6c-0.1,0-0.3,0-0.5-0.1c-0.1,0-0.1,0-0.1,0c-0.3,0-0.4,0.2-0.4,0.4c0,0.2,0.1,0.4,0.4,0.4
		c0.2,0,0.4,0.1,0.7,0.1c0.9,0,1.5-0.5,1.5-1.4C87.7,10.3,87.1,9.8,86,9.8z"/>
	<path d="M94.6,9.3c0,0-0.1,0-0.2,0c-0.4,0.1-0.8,0.3-1.3,0.4c-0.1-0.3-0.2-0.6-0.3-1c0-0.2-0.2-0.3-0.4-0.3c-0.2,0-0.4,0.1-0.4,0.4
		c0,0,0,0.1,0,0.1c0.1,0.3,0.2,0.6,0.3,1C91.6,10,91,10,90.4,10c-0.3,0-0.4,0.2-0.4,0.4c0,0.1,0,0.2,0.1,0.3
		c0.1,0.1,0.2,0.1,0.3,0.1c0.7,0,1.4-0.1,2.1-0.2c0.2,0.5,0.5,0.8,0.7,1.1c-0.3-0.1-0.5-0.1-0.8-0.1c-1.2,0-1.9,0.5-1.9,1.3
		c0,0.9,0.8,1.4,2.2,1.4c0.3,0,0.6,0,0.8,0c0.3,0,0.4-0.2,0.4-0.4c0-0.1,0-0.2-0.1-0.3c-0.1-0.1-0.2-0.1-0.3-0.1c-0.3,0-0.5,0-0.7,0
		c-1.1,0-1.3-0.3-1.3-0.6c0-0.4,0.4-0.6,1.1-0.6c0.6,0,1.1,0.1,1.6,0.3c0,0,0.1,0,0.1,0c0.2,0,0.4-0.2,0.4-0.4c0-0.1,0-0.2-0.1-0.3
		c-0.5-0.5-0.8-1-1.1-1.5c0.5-0.1,0.9-0.2,1.3-0.3C94.9,10,95,9.9,95,9.7C95,9.5,94.8,9.3,94.6,9.3z"/>
	<path d="M101.5,12.2c-0.1,0-0.2,0-0.4,0.2c-0.6,0.7-1.1,1-1.8,1c-0.4,0-0.7-0.2-0.7-1.1c0-1.3,0.1-2.8,0.1-3.4c0-0.1,0-0.2-0.1-0.3
		c-0.1-0.1-0.2-0.1-0.3-0.1c-0.2,0-0.4,0.1-0.4,0.4c0,0.6-0.1,2.1-0.1,3.4c0,1.4,0.5,2,1.6,2c1,0,1.8-0.4,2.5-1.4
		c0.1-0.1,0.1-0.2,0.1-0.3C101.9,12.4,101.7,12.2,101.5,12.2z"/>
	<path d="M109.9,12L109.9,12C109.9,12,109.9,12,109.9,12c-0.3-0.8-0.8-1.6-1.4-2.1c-0.1-0.1-0.2-0.1-0.3-0.1c-0.2,0-0.4,0.2-0.4,0.4
		c0,0.1,0,0.2,0.1,0.3c0.5,0.5,0.9,1.2,1.2,1.9c0.1,0.2,0.2,0.3,0.4,0.3c0.2,0,0.4-0.2,0.4-0.4C110,12.1,109.9,12.1,109.9,12z"/>
	<path d="M106.7,12.2c-0.2,0-0.3,0.1-0.4,0.3c-0.1,0.5-0.3,0.6-0.4,0.6c-0.3,0-0.7-0.6-0.7-3c0-0.2,0-0.4,0-0.5l0-0.1
		c0-0.1,0-0.2-0.1-0.3c-0.1-0.1-0.2-0.1-0.3-0.1c-0.2,0-0.4,0.1-0.4,0.4c0,0.2,0,0.4,0,0.7c0,3.2,0.9,3.9,1.6,3.9
		c0.4,0,0.9-0.2,1.2-1.3c0,0,0-0.1,0-0.1C107.1,12.3,106.9,12.2,106.7,12.2z"/>
</g>
<g>
	<path class="st0" d="M117.9,13.7h-4.5c-0.3,0-0.4-0.1-0.4-0.3V9.6c0-0.2,0.1-0.3,0.4-0.3h1c-0.1,0-0.2,0.1-0.2,0.2
		c-0.1,0.4-0.3,0.7-0.5,1c-0.1,0.1-0.1,0.2-0.1,0.3c0,0.2,0.2,0.3,0.4,0.3c0.1,0,0.2-0.1,0.3-0.2c0.1-0.1,0.2-0.2,0.2-0.3h0.6
		c0,0.2,0,0.4-0.1,0.6h-1.5c-0.2,0-0.3,0.2-0.3,0.3c0,0.2,0.1,0.3,0.3,0.3h1.3c-0.2,0.4-0.6,0.7-1.2,1c-0.2,0.1-0.2,0.2-0.2,0.4
		c0,0.2,0.2,0.4,0.4,0.4c0.1,0,0.1,0,0.2,0c0.7-0.3,1.2-0.8,1.5-1.3c0.4,0.6,1,1,1.6,1.3c0.1,0,0.1,0,0.2,0c0.3,0,0.4-0.2,0.4-0.4
		c0-0.2-0.1-0.3-0.3-0.4c-0.5-0.2-1-0.5-1.3-0.9h1.6c0.2,0,0.3-0.2,0.3-0.3c0-0.2-0.1-0.3-0.3-0.3H116c0-0.2,0.1-0.4,0.1-0.6h1.2
		c0.2,0,0.3-0.2,0.3-0.3s-0.1-0.3-0.3-0.3h-2.3c0,0,0,0,0,0c0,0,0-0.1,0-0.1c0,0,0-0.1,0-0.1c0-0.2-0.1-0.3-0.3-0.3h3.1
		c0.2,0,0.3-0.2,0.3-0.4s-0.1-0.4-0.3-0.4h-4.4c-0.8,0-1.1,0.3-1.1,0.9v4c0,0.6,0.3,0.9,1.1,0.9h4.6c0.2,0,0.3-0.2,0.3-0.4
		S118.2,13.7,117.9,13.7z"/>
	<path class="st0" d="M123.4,13.5c0-0.2-0.2-0.4-0.4-0.4c-0.1,0-0.2,0-0.3,0.1c-0.2,0.2-0.4,0.3-0.7,0.5c-0.1,0.1-0.2,0.2-0.2,0.3
		c0,0.2,0.2,0.4,0.4,0.4c0.1,0,0.1,0,0.2-0.1c0.3-0.2,0.6-0.4,0.9-0.6C123.3,13.7,123.4,13.6,123.4,13.5z"/>
	<path class="st0" d="M126.1,13.6L126.1,13.6c-0.3-0.2-0.5-0.3-0.7-0.4c-0.1-0.1-0.2-0.1-0.3-0.1c-0.2,0-0.4,0.2-0.4,0.4
		c0,0.1,0.1,0.2,0.2,0.3c0.3,0.2,0.6,0.4,0.8,0.6c0.1,0,0.1,0.1,0.2,0.1c0.2,0,0.4-0.2,0.4-0.4C126.3,13.8,126.3,13.7,126.1,13.6z"
		/>
	<path class="st0" d="M126.6,9.1c0-0.2-0.1-0.3-0.3-0.3h-2.1V8.4c0-0.2-0.2-0.3-0.4-0.3c-0.2,0-0.4,0.1-0.4,0.3v0.3h-1.4
		c-0.7,0-1,0.2-1,0.8v0.7c-0.1-0.1-0.2-0.3-0.3-0.4c-0.1-0.1-0.2-0.2-0.3-0.2c-0.2,0-0.4,0.2-0.4,0.3c0,0.1,0,0.1,0.1,0.2
		c0,0,0.1,0.1,0.1,0.1c0.1,0.1,0.1,0.2,0.2,0.3c0.1,0.1,0.2,0.2,0.3,0.2c0.1,0,0.2,0,0.3-0.1c0,0,0,0.1,0,0.1c0,0.1,0,0.3,0,0.4
		c-0.2,0.2-0.5,0.3-0.8,0.4c-0.2,0.1-0.2,0.2-0.2,0.3c0,0.2,0.2,0.4,0.4,0.4c0.1,0,0.1,0,0.2-0.1c0.1-0.1,0.2-0.1,0.3-0.2
		c-0.1,0.6-0.3,1.1-0.6,1.6c-0.1,0.1-0.1,0.2-0.1,0.2c0,0.2,0.2,0.4,0.4,0.4c0.1,0,0.3-0.1,0.4-0.2c0.6-0.9,0.9-2.1,0.9-3.5v-1
		c0-0.2,0-0.2,0.3-0.2h1.6c0,0-0.1,0.1-0.1,0.1l0,0c0,0.1-0.1,0.1-0.1,0.2h-1.1c-0.2,0-0.3,0.2-0.3,0.3c0,0.2,0.1,0.3,0.3,0.3h0.7
		c-0.1,0.1-0.1,0.1-0.2,0.2l0,0.1c-0.1-0.1-0.2-0.1-0.3-0.2c-0.1,0-0.1-0.1-0.2-0.1c-0.2,0-0.3,0.2-0.3,0.3c0,0.1,0,0.2,0.1,0.2l0,0
		c0,0,0.1,0.1,0.1,0.1c-0.1,0.1-0.3,0.2-0.4,0.3c-0.2,0.1-0.2,0.2-0.2,0.3c0,0.2,0.1,0.3,0.3,0.3c0.1,0,0.2,0,0.2-0.1
		c0.1-0.1,0.2-0.1,0.3-0.2v0.7c0,0.4,0.2,0.6,0.7,0.6h0.3v0.8c0,0.1,0,0.1-0.1,0.1c0,0-0.1,0-0.2,0c-0.1,0-0.2,0-0.3,0.1
		c-0.1,0.1-0.1,0.2-0.1,0.3c0,0.2,0.1,0.3,0.3,0.4c0.1,0,0.3,0,0.4,0c0.6,0,0.8-0.2,0.8-0.7v-0.9h0.3c0.5,0,0.7-0.2,0.7-0.6v-0.8
		c0.2,0.1,0.3,0.2,0.5,0.3c0.1,0,0.1,0.1,0.2,0.1c0.2,0,0.4-0.2,0.4-0.4c0-0.1-0.1-0.3-0.2-0.3c-0.1-0.1-0.2-0.1-0.4-0.2
		c0,0,0.1-0.1,0.1-0.1l0,0c0.1-0.1,0.1-0.1,0.1-0.2c0-0.1-0.1-0.3-0.2-0.3h0c0.2,0,0.3-0.2,0.3-0.3c0-0.2-0.1-0.3-0.3-0.3h-1.7
		c0-0.1,0-0.1,0-0.1c0-0.1,0-0.2-0.1-0.2h2.1C126.5,9.4,126.6,9.3,126.6,9.1z M125.6,10.5c-0.1,0.1-0.1,0.1-0.2,0.2c0,0,0,0,0,0
		c-0.1-0.1-0.2-0.2-0.3-0.3L125.6,10.5C125.7,10.5,125.7,10.5,125.6,10.5z M124.8,11.1h-1.4c0.2-0.2,0.3-0.4,0.5-0.6h0.4
		C124.5,10.7,124.7,10.9,124.8,11.1C124.8,11.1,124.8,11.1,124.8,11.1z M124.8,12.3v0.1c0,0.1,0,0.1-0.1,0.1h-1.2
		c-0.1,0-0.1,0-0.1-0.1v-0.1H124.8z M123.3,11.7c0-0.1,0-0.1,0.1-0.1h1.2c0.1,0,0.1,0,0.1,0.1v0.1L123.3,11.7L123.3,11.7z"/>
	<path class="st0" d="M132.8,8.7c-0.2,0-0.4,0.1-0.4,0.3c-0.2,0.6-0.6,1.3-0.9,1.8c-0.4-0.3-0.7-0.5-0.9-0.6c-0.1,0-0.2-0.1-0.2-0.1
		c-0.2,0-0.5,0.2-0.5,0.4c0,0.1,0,0.2,0.2,0.4c0,0,0,0,0,0c0.2,0.1,0.5,0.3,0.9,0.6c-0.6,0.8-1.3,1.4-2.1,1.9
		c-0.2,0.1-0.3,0.2-0.3,0.4c0,0.2,0.2,0.4,0.4,0.4c0.1,0,0.2,0,0.3-0.1c0.8-0.5,1.6-1.2,2.3-2.1c0.3,0.2,0.5,0.5,0.8,0.8
		c0.1,0.1,0.2,0.2,0.4,0.2c0.2,0,0.4-0.2,0.4-0.5c0-0.1-0.1-0.2-0.1-0.4c-0.2-0.3-0.6-0.6-0.9-0.9c0.4-0.7,0.8-1.4,1.1-2.1
		c0-0.1,0-0.1,0-0.2C133.2,8.8,133,8.7,132.8,8.7z"/>
	<path class="st0" d="M137,9.9h2.9c0.2,0,0.3-0.2,0.3-0.4S140.1,9,139.9,9H137c-0.2,0-0.3,0.2-0.3,0.4C136.6,9.6,136.7,9.9,137,9.9z
		"/>
	<path class="st0" d="M140.6,9.6c0.1,0.1,0.2,0.2,0.3,0.2c0.2,0,0.3-0.1,0.3-0.3c0-0.1,0-0.1,0-0.2c-0.1-0.2-0.3-0.5-0.5-0.7
		c-0.1-0.1-0.1-0.1-0.3-0.1c-0.2,0-0.3,0.1-0.3,0.3c0,0.1,0,0.1,0.1,0.2C140.4,9.1,140.5,9.4,140.6,9.6z"/>
	<path class="st0" d="M141.5,8.2c-0.1-0.1-0.2-0.1-0.3-0.1c-0.2,0-0.3,0.1-0.3,0.3c0,0.1,0,0.1,0.1,0.2c0.2,0.2,0.3,0.4,0.4,0.6
		c0.1,0.1,0.2,0.2,0.3,0.2c0.2,0,0.3-0.1,0.3-0.3c0-0.1,0-0.1-0.1-0.2C141.8,8.6,141.6,8.3,141.5,8.2z"/>
	<path class="st0" d="M141,10.7h-4.9c-0.2,0-0.3,0.2-0.3,0.4c0,0.2,0.1,0.4,0.3,0.4h2.1c-0.1,1-0.5,1.7-1.3,2.2
		c-0.2,0.1-0.2,0.3-0.2,0.4c0,0.2,0.2,0.4,0.4,0.4c0.1,0,0.1,0,0.2-0.1c1-0.6,1.6-1.7,1.8-3h2c0.2,0,0.3-0.2,0.3-0.4
		S141.3,10.7,141,10.7z"/>
	<path class="st0" d="M147,9.6c-0.1,0-0.2,0.1-0.3,0.2c-0.6,0.9-1.7,1.8-2.7,2.3c-0.1,0.1-0.2,0.2-0.2,0.4c0,0.2,0.2,0.4,0.4,0.4
		c0.1,0,0.1,0,0.2-0.1c0.4-0.2,0.9-0.5,1.3-0.8v2.3c0,0.2,0.2,0.3,0.4,0.3c0.2,0,0.4-0.1,0.4-0.3v-2.5c0-0.1-0.1-0.2-0.2-0.3
		c0.4-0.4,0.8-0.8,1.1-1.2c0-0.1,0.1-0.1,0.1-0.2C147.4,9.8,147.2,9.6,147,9.6z"/>
	<path class="st0" d="M155.1,9.2C155,9.1,154.7,9,154.4,9c0,0,0,0,0,0l-4.1,0c-0.3,0-0.4,0.2-0.4,0.4c0,0.2,0.1,0.4,0.4,0.4l3.9,0
		c0.1,0,0.1,0,0.1,0c0,0,0,0.1,0,0.1c-0.2,0.3-0.4,0.5-0.7,0.8c-0.2,0.1-0.2,0.3-0.2,0.4c0,0.2,0.2,0.4,0.4,0.4c0.1,0,0.2,0,0.3-0.1
		c0.4-0.3,0.8-0.8,1.1-1.2c0.1-0.2,0.2-0.4,0.2-0.5C155.3,9.5,155.3,9.3,155.1,9.2z"/>
	<path class="st0" d="M152.5,10.3c-0.2,0-0.4,0.1-0.4,0.4V11c0,1.2-0.4,2-1.4,2.5c-0.2,0.1-0.3,0.3-0.3,0.4c0,0.2,0.2,0.4,0.4,0.4
		c0.1,0,0.2,0,0.3-0.1c1.2-0.7,1.8-1.8,1.8-3.3v-0.3C152.9,10.4,152.7,10.3,152.5,10.3z"/>
</g>
<circle cx="17.5" cy="21.8" r="3.8"/>
<circle cx="37.7" cy="21.8" r="3.8"/>
<path class="st0" d="M36.8,8.5l-8.5,4.3c-2.4,1.1-4.1,1.1-6.6,0l-8.5-4.3c-3.2-1.9-8.6-0.2-8.6,4.2v14.1c0,3,2.4,5.3,5.3,5.3h1.4
	c0,0.8,0,2.1,0,2.6c0,0.8,0.8,1.4,1.6,0.8c0.5-0.4,2.6-2.4,3.6-3.4H25h15c3,0,5.3-2.4,5.3-5.3V12.7C45.4,8.3,40.9,6.5,36.8,8.5z
	 M19.1,22.7c-0.3,1.7-1.6,3.1-3.3,3.3c-2.8,0.5-5.2-1.9-4.7-4.7c0.3-1.7,1.6-3.1,3.3-3.3C17.2,17.6,19.6,19.9,19.1,22.7z M39.6,22.7
	c-0.3,1.7-1.6,3.1-3.3,3.3c-2.8,0.5-5.2-1.9-4.7-4.7c0.3-1.7,1.6-3.1,3.3-3.3C37.6,17.6,40,19.9,39.6,22.7z"/>
<g>
	<path d="M66.3,22.1c-0.5,0-1,0.3-1.3,0.8l-2.4,4.8l-2.5-4.8c-0.2-0.5-0.7-0.8-1.3-0.8c-0.8,0-1.4,0.6-1.4,1.4v6.8
		c0,0.5,0.4,0.9,0.9,0.9s0.9-0.4,0.9-0.9v-5.3l2.3,4.7c0.2,0.4,0.6,0.6,1,0.6c0.4,0,0.8-0.2,1-0.6l2.3-4.7v5.3
		c0,0.5,0.4,0.9,0.9,0.9c0.5,0,0.9-0.4,0.9-0.9v-6.8C67.7,22.7,67,22.1,66.3,22.1z"/>
	<path d="M76.7,25.1c-0.6-0.7-1.5-1-2.6-1c-0.7,0-1.3,0.2-1.9,0.5c-0.5,0.3-1,0.7-1.3,1.3c-0.3,0.5-0.5,1.2-0.5,1.9
		c0,0.7,0.2,1.3,0.5,1.9c0.3,0.5,0.7,1,1.3,1.3c0.6,0.3,1.2,0.4,1.9,0.4c0.6,0,1.2-0.1,1.7-0.3c0.3-0.1,0.6-0.3,0.9-0.5
		c0.1-0.1,0.4-0.6,0.1-1.1c-0.4-0.5-1-0.2-1.1-0.1c-0.1,0.1-0.3,0.2-0.4,0.2c-0.3,0.1-0.6,0.2-1,0.2c-0.5,0-0.8-0.1-1.2-0.4
		c-0.3-0.2-0.5-0.6-0.7-1c0,0,3.3,0,4.2,0c0.9,0,0.8-0.8,0.8-0.9C77.5,26.5,77.2,25.7,76.7,25.1z M72.5,27.2
		c0.1-0.5,0.3-0.8,0.6-1.1c0.3-0.3,0.7-0.4,1.1-0.4c0.5,0,0.8,0.1,1.1,0.4c0.3,0.3,0.4,0.7,0.4,1.1H72.5z"/>
	<path d="M86.5,21.5c-0.6,0-1,0.4-1,1v2.2c-0.7-0.6-1.6-0.7-2.2-0.7c-0.6,0-1.3,0.2-1.8,0.5c-0.5,0.3-0.9,0.7-1.2,1.3
		C80.1,26.4,80,27,80,27.7c0,0.7,0.1,1.3,0.4,1.9c0.3,0.5,0.7,1,1.2,1.3c0.5,0.3,1.1,0.5,1.7,0.5c0.5,0,0.9-0.1,1.3-0.3
		c0.4-0.2,0.6-0.3,0.9-0.6c0,0,0.1,0.8,1,0.8c1,0,1-0.8,1-1.3v-7.4C87.5,22,87.1,21.5,86.5,21.5z M83.5,29.7c-1.1,0-2-0.9-2-2
		c0-1.1,0.9-2,2-2c1.1,0,2,0.9,2,2C85.4,28.8,84.5,29.7,83.5,29.7z"/>
	<path d="M91.6,21.1c-0.3,0-0.6,0.1-0.8,0.3c-0.2,0.2-0.3,0.5-0.3,0.8c0,0.3,0.1,0.6,0.3,0.8c0.2,0.2,0.5,0.3,0.8,0.3
		c0.3,0,0.6-0.1,0.8-0.3c0.2-0.2,0.3-0.5,0.3-0.8s-0.1-0.6-0.3-0.8C92.1,21.2,91.9,21.1,91.6,21.1z"/>
	<path d="M91.6,31.3L91.6,31.3c0.6,0,1-0.5,1-1v-5c0-0.6-0.5-1-1-1h0c-0.6,0-1,0.5-1,1v5C90.6,30.8,91,31.3,91.6,31.3z"/>
	<path d="M109.8,24.8c-0.5-0.4-1.3-0.7-2.2-0.7c-0.6,0-1.1,0.1-1.6,0.2c-0.3,0.1-0.5,0.2-0.8,0.3c-0.2,0.1-0.7,0.4-0.5,1
		c0.2,0.6,0.9,0.5,1.1,0.4c0.5-0.2,0.9-0.2,1.3-0.2c0.5,0,1.1,0.1,1.3,0.3c0.6,0.4,0.2,1-0.3,1s-1.4,0-1.4,0c-0.9,0-1.4,0.2-1.8,0.6
		c-0.5,0.4-0.6,0.9-0.6,1.6c0,0.7,0.2,1.2,0.7,1.6c0.4,0.4,0.9,0.6,1.7,0.6c0.5,0,0.8-0.1,1.2-0.2c0.4-0.2,0.7-0.4,0.9-0.7
		c0,0,0.1,0.8,1,0.8c0.9,0,0.9-0.8,0.9-0.8l0-3.8C110.6,25.9,110.3,25.2,109.8,24.8z M108.6,28.8c0,0.3-0.2,0.6-0.5,0.8
		c-0.3,0.2-0.7,0.3-1.1,0.3c-0.3,0-0.6-0.1-0.8-0.2c-0.2-0.2-0.3-0.4-0.3-0.6c0-0.3,0.1-0.5,0.3-0.6c0.2-0.1,0.5-0.2,0.9-0.2
		c0,0,0,0,0.7,0C108.5,28.2,108.6,28.6,108.6,28.8z"/>
	<path d="M114.7,31.3L114.7,31.3c0.6,0,1-0.5,1-1v-7.7c0-0.6-0.5-1-1-1l0,0c-0.6,0-1,0.5-1,1v7.7C113.7,30.8,114.2,31.3,114.7,31.3z
		"/>
	<path d="M130.6,22.7c-0.7-0.4-1.6-0.6-2.5-0.6h-2.6c-0.7,0-1.3,0.6-1.3,1.3v6.5c0,0.7,0.6,1.3,1.3,1.3h2.5c1,0,1.8-0.2,2.5-0.6
		c0.7-0.4,1.3-0.9,1.7-1.6c0.4-0.7,0.6-1.5,0.6-2.4c0-0.9-0.2-1.7-0.6-2.4C131.9,23.6,131.4,23.1,130.6,22.7z M130.5,28.2
		c-0.2,0.4-0.5,0.8-0.9,1s-0.9,0.4-1.4,0.4h-1.9v-5.7h1.8c0.5,0,1,0.1,1.4,0.4c0.4,0.2,0.7,0.6,1,1c0.2,0.4,0.4,0.9,0.4,1.5
		C130.9,27.2,130.7,27.7,130.5,28.2z"/>
	<path d="M142.6,22.6c-0.8-0.4-1.6-0.6-2.5-0.6c-0.9,0-1.8,0.2-2.5,0.6c-0.7,0.4-1.3,1-1.8,1.7c-0.4,0.7-0.6,1.5-0.6,2.4
		c0,0.9,0.2,1.7,0.6,2.4c0.4,0.7,1,1.3,1.8,1.7c0.8,0.4,1.6,0.6,2.5,0.6s1.8-0.2,2.5-0.6c0.8-0.4,1.3-1,1.8-1.7
		c0.4-0.7,0.6-1.5,0.6-2.4c0-0.9-0.2-1.7-0.6-2.4C143.9,23.5,143.3,23,142.6,22.6z M142.5,28.1c-0.2,0.4-0.6,0.8-1,1.1
		c-0.4,0.3-0.9,0.4-1.4,0.4s-1-0.1-1.4-0.4s-0.8-0.6-1-1.1c-0.3-0.4-0.4-0.9-0.4-1.5c0-0.5,0.1-1,0.4-1.5c0.3-0.4,0.6-0.8,1-1.1
		c0.4-0.3,0.9-0.4,1.4-0.4s1,0.1,1.4,0.4c0.4,0.3,0.8,0.6,1,1.1c0.2,0.4,0.4,0.9,0.4,1.5C142.9,27.2,142.7,27.7,142.5,28.1z"/>
	<path d="M153.6,29.1c-0.1,0.1-0.2,0.1-0.3,0.1c-0.4,0.2-0.8,0.3-1.3,0.3c-0.5,0-1-0.1-1.4-0.4c-0.4-0.3-0.8-0.6-1-1
		c-0.2-0.4-0.4-0.9-0.4-1.5s0.1-1,0.4-1.5c0.2-0.4,0.6-0.8,1-1c0.4-0.3,0.9-0.4,1.4-0.4c0.4,0,0.9,0.1,1.3,0.3
		c0.1,0.1,0.2,0.1,0.3,0.2c0.3,0.2,1,0.4,1.5-0.1c0.4-0.5,0-1.1-0.3-1.3c-0.3-0.2-0.5-0.3-0.8-0.4c-0.6-0.3-1.3-0.4-2-0.4
		c-0.9,0-1.7,0.2-2.5,0.6c-0.7,0.4-1.3,1-1.8,1.7c-0.4,0.7-0.6,1.5-0.6,2.4c0,0.9,0.2,1.7,0.6,2.4c0.4,0.7,1,1.3,1.7,1.7
		c0.7,0.4,1.5,0.6,2.4,0.6c0.7,0,1.3-0.1,2-0.4c0.3-0.1,0.6-0.3,0.8-0.5c0.3-0.2,0.7-0.8,0.3-1.4C154.6,28.5,153.9,28.9,153.6,29.1z
		"/>
	<path d="M100,29.5c-0.3,0.1-0.6,0.2-0.9,0.2c-0.5,0-0.9-0.2-1.2-0.5c-0.3-0.4-0.5-0.8-0.5-1.4c0-0.6,0.2-1,0.5-1.4
		c0.3-0.4,0.7-0.5,1.2-0.5c0.3,0,0.6,0.1,0.9,0.2c0.3,0.1,0.9,0.7,1.4,0.2c0.6-0.5,0.3-1,0-1.2c-0.2-0.2-0.3-0.3-0.6-0.4
		c-0.5-0.3-1.2-0.4-1.9-0.4c-0.7,0-1.3,0.1-1.9,0.4c-0.5,0.3-1,0.7-1.3,1.3c-0.3,0.5-0.4,1.2-0.5,1.9l0,0c0,0,0,0,0,0s0,0,0,0l0,0
		c0,0.7,0.2,1.3,0.5,1.9c0.3,0.5,0.7,1,1.3,1.3c0.5,0.3,1.2,0.4,1.9,0.4c0.7,0,1.3-0.1,1.9-0.4c0.2-0.1,0.4-0.2,0.6-0.4
		c0.2-0.2,0.5-0.7,0-1.2C100.8,28.8,100.3,29.3,100,29.5z"/>
</g>
</svg>
